<svg id="Layer_1" data-name="Layer 1" xmlns="http://www.w3.org/2000/svg" viewBox="0 0 33.51 16"><defs><style>.cls-1{fill:gray;}.cls-2{fill:#fff;}.cls-3{fill:#b12233;}.cls-4{fill:#3c3b6d;}.cls-5{fill:#f0f0f0;}.cls-6{fill:#bb022c;}</style></defs><path class="cls-1" d="M12.59,3.51H5.45a3.1,3.1,0,0,0-3.21,3V13a3.1,3.1,0,0,0,3.21,3h7.14a3.1,3.1,0,0,0,3.21-3V6.47a3.1,3.1,0,0,0-3.21-3Z"/><rect class="cls-2" y="11.05" width="15.96" height="1.23"/><rect class="cls-3" y="9.82" width="15.96" height="1.23"/><rect class="cls-2" y="8.59" width="15.96" height="1.23"/><path class="cls-3" d="M16,12.27v.49a3,3,0,0,1-.09.74H.09A3,3,0,0,1,0,12.76v-.49Z"/><path class="cls-3" d="M15.28,14.73A3.17,3.17,0,0,1,12.76,16H3.19A3.17,3.17,0,0,1,.68,14.73Z"/><path class="cls-2" d="M15.87,13.5a3.26,3.26,0,0,1-.59,1.23H.68A3.12,3.12,0,0,1,.09,13.5Z"/><path class="cls-2" d="M15.87,2.45H.09a2.45,2.45,0,0,1,.08-.29v0a3.11,3.11,0,0,1,.43-.83h0a.16.16,0,0,1,.06-.08h14.6A3.15,3.15,0,0,1,15.87,2.45Z"/><path class="cls-3" d="M15.28,1.23H.68A2.94,2.94,0,0,1,1.13.75,3.2,3.2,0,0,1,3.19,0h9.57A3.18,3.18,0,0,1,15.28,1.23Z"/><path class="cls-3" d="M16,3.19v.49H0V3.19a3.06,3.06,0,0,1,.09-.74H15.87A3.65,3.65,0,0,1,16,3.19Z"/><rect class="cls-3" y="4.91" width="15.96" height="1.23"/><rect class="cls-2" y="3.68" width="15.96" height="1.23"/><rect class="cls-2" y="6.14" width="15.96" height="1.23"/><rect class="cls-3" y="7.36" width="15.96" height="1.23"/><path class="cls-4" d="M8,0V8.59H0V3.19a3.06,3.06,0,0,1,.09-.74,2.45,2.45,0,0,1,.08-.29v0a3.11,3.11,0,0,1,.43-.83h0a.16.16,0,0,1,.06-.08A2.94,2.94,0,0,1,1.13.75,3.2,3.2,0,0,1,3.19,0Z"/><polygon class="cls-2" points="6.97 0.41 7.08 0.75 7.44 0.75 7.15 0.97 7.26 1.31 6.97 1.1 6.67 1.31 6.78 0.97 6.49 0.75 6.85 0.75 6.97 0.41"/><polygon class="cls-2" points="4.95 0.41 5.06 0.75 5.42 0.75 5.13 0.97 5.24 1.31 4.95 1.1 4.65 1.31 4.76 0.97 4.47 0.75 4.83 0.75 4.95 0.41"/><polygon class="cls-2" points="2.93 0.41 3.04 0.75 3.4 0.75 3.11 0.97 3.22 1.31 2.93 1.1 2.63 1.31 2.75 0.97 2.45 0.75 2.81 0.75 2.93 0.41"/><path class="cls-2" d="M1.17,1.23l0,.08-.12-.08L.91,1.1l-.18.13-.11.08a.16.16,0,0,1,.06-.08A2.94,2.94,0,0,1,1.13.75h.25L1.09,1Z"/><polygon class="cls-2" points="6.97 2.13 7.08 2.47 7.44 2.47 7.15 2.68 7.26 3.03 6.97 2.82 6.67 3.03 6.78 2.68 6.49 2.47 6.85 2.47 6.97 2.13"/><polygon class="cls-2" points="4.95 2.13 5.06 2.47 5.42 2.47 5.13 2.68 5.24 3.03 4.95 2.82 4.65 3.03 4.76 2.68 4.47 2.47 4.83 2.47 4.95 2.13"/><polygon class="cls-2" points="2.93 2.13 3.04 2.47 3.4 2.47 3.11 2.68 3.22 3.03 2.93 2.82 2.63 3.03 2.75 2.68 2.45 2.47 2.81 2.47 2.93 2.13"/><polygon class="cls-2" points="0.91 2.13 1.02 2.47 1.38 2.47 1.09 2.68 1.2 3.03 0.91 2.82 0.61 3.03 0.72 2.68 0.43 2.47 0.79 2.47 0.91 2.13"/><polygon class="cls-2" points="6.97 3.84 7.08 4.19 7.44 4.19 7.15 4.4 7.26 4.75 6.97 4.53 6.67 4.75 6.78 4.4 6.49 4.19 6.85 4.19 6.97 3.84"/><polygon class="cls-2" points="4.95 3.84 5.06 4.19 5.42 4.19 5.13 4.4 5.24 4.75 4.95 4.53 4.65 4.75 4.76 4.4 4.47 4.19 4.83 4.19 4.95 3.84"/><polygon class="cls-2" points="2.93 3.84 3.04 4.19 3.4 4.19 3.11 4.4 3.22 4.75 2.93 4.53 2.63 4.75 2.75 4.4 2.45 4.19 2.81 4.19 2.93 3.84"/><polygon class="cls-2" points="0.91 3.84 1.02 4.19 1.38 4.19 1.09 4.4 1.2 4.75 0.91 4.53 0.61 4.75 0.72 4.4 0.43 4.19 0.79 4.19 0.91 3.84"/><polygon class="cls-2" points="6.97 5.56 7.08 5.91 7.44 5.91 7.15 6.12 7.26 6.46 6.97 6.25 6.67 6.46 6.78 6.12 6.49 5.91 6.85 5.91 6.97 5.56"/><polygon class="cls-2" points="4.95 5.56 5.06 5.91 5.42 5.91 5.13 6.12 5.24 6.46 4.95 6.25 4.65 6.46 4.76 6.12 4.47 5.91 4.83 5.91 4.95 5.56"/><polygon class="cls-2" points="2.93 5.56 3.04 5.91 3.4 5.91 3.11 6.12 3.22 6.46 2.93 6.25 2.63 6.46 2.75 6.12 2.45 5.91 2.81 5.91 2.93 5.56"/><polygon class="cls-2" points="0.91 5.56 1.02 5.91 1.38 5.91 1.09 6.12 1.2 6.46 0.91 6.25 0.61 6.46 0.72 6.12 0.43 5.91 0.79 5.91 0.91 5.56"/><polygon class="cls-2" points="6.97 7.28 7.08 7.62 7.44 7.62 7.15 7.84 7.26 8.18 6.97 7.97 6.67 8.18 6.78 7.84 6.49 7.62 6.85 7.62 6.97 7.28"/><polygon class="cls-2" points="4.95 7.28 5.06 7.62 5.42 7.62 5.13 7.84 5.24 8.18 4.95 7.97 4.65 8.18 4.76 7.84 4.47 7.62 4.83 7.62 4.95 7.28"/><polygon class="cls-2" points="2.93 7.28 3.04 7.62 3.4 7.62 3.11 7.84 3.22 8.18 2.93 7.97 2.63 8.18 2.75 7.84 2.45 7.62 2.81 7.62 2.93 7.28"/><polygon class="cls-2" points="0.91 7.28 1.02 7.62 1.38 7.62 1.09 7.84 1.2 8.18 0.91 7.97 0.61 8.18 0.72 7.84 0.43 7.62 0.79 7.62 0.91 7.28"/><polygon class="cls-2" points="5.96 6.42 6.07 6.76 6.43 6.76 6.14 6.98 6.25 7.32 5.96 7.11 5.66 7.32 5.78 6.98 5.48 6.76 5.84 6.76 5.96 6.42"/><polygon class="cls-2" points="3.94 6.42 4.05 6.76 4.41 6.76 4.12 6.98 4.23 7.32 3.94 7.11 3.64 7.32 3.75 6.98 3.46 6.76 3.82 6.76 3.94 6.42"/><polygon class="cls-2" points="1.92 6.42 2.03 6.76 2.39 6.76 2.1 6.98 2.21 7.32 1.92 7.11 1.62 7.32 1.74 6.98 1.44 6.76 1.8 6.76 1.92 6.42"/><polygon class="cls-2" points="0.08 6.98 0.19 7.32 0 7.18 0 6.74 0.01 6.76 0.37 6.76 0.08 6.98"/><polygon class="cls-2" points="5.96 4.7 6.07 5.05 6.43 5.05 6.14 5.26 6.25 5.61 5.96 5.39 5.66 5.61 5.78 5.26 5.48 5.05 5.84 5.05 5.96 4.7"/><polygon class="cls-2" points="3.94 4.7 4.05 5.05 4.41 5.05 4.12 5.26 4.23 5.61 3.94 5.39 3.64 5.61 3.75 5.26 3.46 5.05 3.82 5.05 3.94 4.7"/><polygon class="cls-2" points="1.92 4.7 2.03 5.05 2.39 5.05 2.1 5.26 2.21 5.61 1.92 5.39 1.62 5.61 1.74 5.26 1.44 5.05 1.8 5.05 1.92 4.7"/><polygon class="cls-2" points="0.08 5.26 0.19 5.61 0 5.47 0 5.02 0.01 5.05 0.37 5.05 0.08 5.26"/><polygon class="cls-2" points="5.96 2.98 6.07 3.33 6.43 3.33 6.14 3.54 6.25 3.89 5.96 3.67 5.66 3.89 5.78 3.54 5.48 3.33 5.84 3.33 5.96 2.98"/><polygon class="cls-2" points="3.94 2.98 4.05 3.33 4.41 3.33 4.12 3.54 4.23 3.89 3.94 3.67 3.64 3.89 3.75 3.54 3.46 3.33 3.82 3.33 3.94 2.98"/><polygon class="cls-2" points="1.92 2.98 2.03 3.33 2.39 3.33 2.1 3.54 2.21 3.89 1.92 3.67 1.62 3.89 1.74 3.54 1.44 3.33 1.8 3.33 1.92 2.98"/><polygon class="cls-2" points="0.12 3.68 0.19 3.89 0 3.75 0 3.3 0.01 3.33 0.37 3.33 0.08 3.54 0.12 3.68"/><polygon class="cls-2" points="5.96 1.27 6.07 1.61 6.43 1.61 6.14 1.82 6.25 2.17 5.96 1.96 5.66 2.17 5.78 1.82 5.48 1.61 5.84 1.61 5.96 1.27"/><polygon class="cls-2" points="3.94 1.27 4.05 1.61 4.41 1.61 4.12 1.82 4.23 2.17 3.94 1.96 3.64 2.17 3.75 1.82 3.46 1.61 3.82 1.61 3.94 1.27"/><polygon class="cls-2" points="1.92 1.27 2.03 1.61 2.39 1.61 2.1 1.82 2.21 2.17 1.92 1.96 1.62 2.17 1.74 1.82 1.44 1.61 1.8 1.61 1.92 1.27"/><path class="cls-2" d="M.19,2.17h0v0Z"/><path class="cls-2" d="M20.74,15.46a2.67,2.67,0,0,1-2.5-1.7,2.76,2.76,0,0,1-.18-1V3.2a2.87,2.87,0,0,1,.18-1A2.69,2.69,0,0,1,20.74.5h9.57a2.68,2.68,0,0,1,2.51,1.7,2.65,2.65,0,0,1,.19,1v9.57a2.69,2.69,0,0,1-2.7,2.69Z"/><path class="cls-5" d="M30.31,1a2.17,2.17,0,0,1,2,1.38,2.14,2.14,0,0,1,.16.82v9.57A2.19,2.19,0,0,1,30.31,15H20.74a2.19,2.19,0,0,1-2-1.38,2.23,2.23,0,0,1-.14-.81V3.2a2.33,2.33,0,0,1,.14-.81,2.19,2.19,0,0,1,2-1.39h9.57m0-1H20.74a3.21,3.21,0,0,0-3,2,3.35,3.35,0,0,0-.21,1.19v9.57a3.28,3.28,0,0,0,.21,1.17,3.21,3.21,0,0,0,3,2h9.57a3.21,3.21,0,0,0,3-2,3.29,3.29,0,0,0,.22-1.17V3.2A3.35,3.35,0,0,0,33.29,2a3.2,3.2,0,0,0-3-2Z"/><circle class="cls-6" cx="25.53" cy="7.98" r="4.8"/></svg>